<?xml version="1.0" standalone="no"?>
<!DOCTYPE svg PUBLIC "-//W3C//DTD SVG 20010904//EN"
 "http://www.w3.org/TR/2001/REC-SVG-20010904/DTD/svg10.dtd">
<svg version="1.0" xmlns="http://www.w3.org/2000/svg"
 width="400.000000pt" height="400.000000pt" viewBox="0 0 400.000000 400.000000"
 preserveAspectRatio="xMidYMid meet">

<g transform="translate(0.000000,400.000000) scale(0.100000,-0.100000)"
fill="#d8dde6" stroke="none">
<path d="M2522 3270 c-59 -12 -85 -26 -193 -107 -143 -106 -325 -233 -335
-234 -5 0 -43 -24 -84 -54 -100 -71 -277 -178 -448 -270 l-139 -75 8 -43 c4
-23 8 -61 9 -84 0 -24 3 -43 7 -43 11 0 221 109 338 175 124 70 467 283 475
294 3 4 63 49 134 100 70 51 150 110 177 131 79 63 154 63 213 2 39 -42 45
-76 30 -177 -7 -50 -19 -147 -27 -218 -13 -125 -13 -127 7 -141 30 -19 137
-69 140 -65 4 7 50 422 54 491 5 99 -17 159 -87 229 -76 76 -179 109 -279 89z"/>
<path d="M1015 2387 c-88 -40 -186 -84 -218 -96 -69 -28 -134 -90 -168 -158
-34 -69 -34 -197 0 -266 45 -92 92 -126 262 -194 146 -59 266 -112 299 -133
19 -12 134 -63 138 -60 7 3 269 -141 394 -217 l136 -83 66 45 c36 26 68 50 71
55 9 15 -309 207 -522 315 -73 36 -133 70 -133 74 0 4 -6 8 -12 8 -7 0 -43 14
-80 32 -36 17 -69 31 -72 31 -7 0 -314 127 -344 142 -61 32 -81 135 -38 198
20 30 50 47 205 115 l182 80 -3 92 c-2 51 -3 93 -3 93 0 0 -72 -33 -160 -73z"/>
<path d="M2654 2282 c-10 -106 2 -709 16 -807 36 -253 56 -452 48 -482 -18
-66 -112 -117 -176 -95 -15 5 -90 57 -166 116 -77 59 -159 121 -183 137 l-44
30 -37 -22 c-20 -13 -54 -35 -74 -50 l-38 -27 88 -63 c48 -34 142 -105 210
-157 147 -112 195 -135 277 -135 94 -1 160 27 226 92 99 100 103 131 59 501
-12 102 -20 202 -18 223 2 20 0 37 -4 37 -5 0 -8 5 -8 11 0 5 5 7 10 4 7 -4 7
1 0 17 -15 35 -27 300 -22 500 l4 176 -24 7 c-12 4 -49 20 -80 36 l-56 28 -8
-77z"/>
<path d="M1947 2167 c-149 -47 -167 -254 -27 -324 72 -37 148 -25 204 33 126
129 -6 345 -177 291z"/>
</g>
</svg>